<svg xmlns="http://www.w3.org/2000/svg"  viewBox="0 0 100 100" width="100px" height="100px"><polygon fill="#bb7a54" points="78,81 22,81 16,79 13,75 88,75 84,79"/><path fill="#eba272" d="M92.5,75h-85C6.119,75,5,73.881,5,72.5l0,0C5,71.119,6.119,70,7.5,70h85c1.381,0,2.5,1.119,2.5,2.5 l0,0C95,73.881,93.881,75,92.5,75z"/><path fill="#a1d3a2" d="M63.5,13.369c-1.152,1.104-3.512,3.751-3.512,6.908c0,2.046,1.575,3.711,3.512,3.711 s3.513-1.665,3.513-3.711C67.013,17.119,64.652,14.473,63.5,13.369z"/><path fill="#52bfa1" d="M69.458,23.261c-0.536,0.399-1.141,0.632-1.755,0.703c0.815-0.996,1.31-2.282,1.31-3.687 c0-1.46-0.385-2.801-0.932-3.984c1.901-0.456,3.819-0.227,4.861-0.025C72.725,17.86,71.973,21.39,69.458,23.261z"/><rect width="24" height="42" x="17" y="27" fill="#ceccbe"/><rect width="42" height="43" x="41" y="27" fill="#fefdef"/><path fill="#1f212b" d="M75.229,82H24.819c-8.582,0-11.767-4.313-12.685-6H7.833c-2.062,0-3.74-1.57-3.74-3.5 S5.771,69,7.833,69h84.381c2.062,0,3.74,1.57,3.74,3.5s-1.678,3.5-3.74,3.5h-4.301C86.995,77.688,83.81,82,75.229,82z M7.833,71 c-0.959,0-1.74,0.673-1.74,1.5s0.78,1.5,1.74,1.5h4.931c0.42,0,0.795,0.262,0.939,0.657C13.785,74.869,15.848,80,24.819,80h50.409 c8.972,0,11.034-5.131,11.117-5.35c0.148-0.388,0.522-0.65,0.937-0.65h4.932c0.959,0,1.74-0.673,1.74-1.5s-0.78-1.5-1.74-1.5 H7.833z"/><path fill="#1f212b" d="M36.5,75h-3c-0.276,0-0.5-0.224-0.5-0.5s0.224-0.5,0.5-0.5h3c0.276,0,0.5,0.224,0.5,0.5 S36.776,75,36.5,75z"/><path fill="#1f212b" d="M87.5,75h-47c-0.276,0-0.5-0.224-0.5-0.5s0.224-0.5,0.5-0.5h47c0.276,0,0.5,0.224,0.5,0.5 S87.776,75,87.5,75z"/><path fill="#1f212b" d="M29.44,75H12.588c-0.276,0-0.5-0.224-0.5-0.5s0.224-0.5,0.5-0.5H29.44c0.276,0,0.5,0.224,0.5,0.5 S29.716,75,29.44,75z"/><path fill="#1f212b" d="M83,71H17c-0.553,0-1-0.448-1-1V26c0-0.552,0.447-1,1-1h66c0.553,0,1,0.448,1,1v44 C84,70.552,83.553,71,83,71z M18,69h64V27H18V69z"/><path fill="#1f212b" d="M40.5,70c-0.276,0-0.5-0.224-0.5-0.5v-26c0-0.276,0.224-0.5,0.5-0.5s0.5,0.224,0.5,0.5v26 C41,69.776,40.776,70,40.5,70z"/><path fill="#1f212b" d="M74.313,14.537c-0.161-0.049-3.734-1.103-7.249-0.048c-1.317-1.948-2.836-3.158-2.948-3.245 c-0.361-0.284-0.871-0.284-1.232,0c-0.2,0.156-4.896,3.894-4.896,9.033c0,3.149,2.473,5.711,5.512,5.711 c0.664,0,1.298-0.128,1.888-0.352c0.62,0.24,1.27,0.359,1.921,0.359c1.167,0,2.336-0.381,3.342-1.129 c4.07-3.028,4.361-9.075,4.371-9.331C75.041,15.079,74.749,14.668,74.313,14.537z M59.988,20.277c0-3.157,2.359-5.804,3.512-6.908 c1.152,1.104,3.513,3.75,3.513,6.908c0,2.046-1.576,3.711-3.513,3.711S59.988,22.323,59.988,20.277z M69.458,23.261 c-0.536,0.399-1.141,0.632-1.755,0.703c0.815-0.996,1.31-2.282,1.31-3.687c0-1.46-0.385-2.801-0.932-3.984 c1.901-0.456,3.819-0.227,4.861-0.025C72.725,17.86,71.973,21.39,69.458,23.261z"/><path fill="#1f212b" d="M40.5,40c-0.276,0-0.5-0.224-0.5-0.5v-3c0-0.276,0.224-0.5,0.5-0.5s0.5,0.224,0.5,0.5v3 C41,39.776,40.776,40,40.5,40z"/><path fill="#1f212b" d="M40.5,33c-0.276,0-0.5-0.224-0.5-0.5v-6c0-0.276,0.224-0.5,0.5-0.5s0.5,0.224,0.5,0.5v6 C41,32.776,40.776,33,40.5,33z"/></svg>