<?xml version="1.0" encoding="utf-8"?>
<!-- Generator: Adobe Illustrator 28.5.0, SVG Export Plug-In . SVG Version: 9.03 Build 54727)  -->
<svg version="1.0" id="Layer_1" xmlns="http://www.w3.org/2000/svg" xmlns:xlink="http://www.w3.org/1999/xlink" x="0px" y="0px"
	 viewBox="0 0 64 64" style="enable-background:new 0 0 64 64;" xml:space="preserve">
<style type="text/css">
	.st0{fill:none;stroke:#231F20;stroke-width:2;stroke-linecap:round;stroke-linejoin:round;stroke-miterlimit:10;}
</style>
<g>
	<path class="st0" d="M60,50.3H4c-1.1,0-1.9-0.9-1.9-1.9v-3.1c0-1.1,0.9-1.9,1.9-1.9H60c1.1,0,1.9,0.9,1.9,1.9v3.1
		C61.9,49.5,61.1,50.3,60,50.3z"/>
	<path class="st0" d="M19.2,59.7h-8.3c-1.5,0-2.8-1.2-2.8-2.8v-6.6h13.9v6.6C21.9,58.4,20.7,59.7,19.2,59.7z"/>
	<path class="st0" d="M53.2,59.7h-8.3c-1.5,0-2.8-1.2-2.8-2.8v-6.6h13.9v6.6C55.9,58.4,54.7,59.7,53.2,59.7z"/>
	<path class="st0" d="M48.8,43.5H34.7c-1.5,0-2.7-1.2-2.7-2.7V26.6c0-1.5,1.2-2.7,2.7-2.7h14.1c1.5,0,2.7,1.2,2.7,2.7v14.1
		C51.6,42.2,50.3,43.5,48.8,43.5z"/>
	<path class="st0" d="M48.8,43.5h6.9c1.5,0,2.7-1.2,2.7-2.7V26.6c0-1.5-1.2-2.7-2.7-2.7h-6.9"/>
	<path class="st0" d="M37.8,23.9H23.7c-1.5,0-2.7-1.2-2.7-2.7V7.1c0-1.5,1.2-2.7,2.7-2.7h14.1c1.5,0,2.7,1.2,2.7,2.7v14.1
		C40.6,22.7,39.3,23.9,37.8,23.9z"/>
	<path class="st0" d="M37.8,23.9h6.9c1.5,0,2.7-1.2,2.7-2.7V7.1c0-1.5-1.2-2.7-2.7-2.7h-6.9"/>
	<path class="st0" d="M22.4,43.5H8.3c-1.5,0-2.7-1.2-2.7-2.7V26.6c0-1.5,1.2-2.7,2.7-2.7h14.1c1.5,0,2.7,1.2,2.7,2.7v14.1
		C25.1,42.2,23.9,43.5,22.4,43.5z"/>
	<path class="st0" d="M22.4,43.5h6.9c1.5,0,2.7-1.2,2.7-2.7V26.6c0-1.5-1.2-2.7-2.7-2.7h-6.9"/>
	<line class="st0" x1="34.6" y1="15.1" x2="34.6" y2="16"/>
	<line class="st0" x1="37.5" y1="11.6" x2="37.5" y2="12.5"/>
	<line class="st0" x1="35.6" y1="7.4" x2="35.6" y2="8.3"/>
	<line class="st0" x1="24.3" y1="16.8" x2="24.3" y2="16"/>
	<line class="st0" x1="26.2" y1="21" x2="26.2" y2="20.2"/>
	<line class="st0" x1="45.8" y1="34.5" x2="45.8" y2="35.4"/>
	<line class="st0" x1="48.6" y1="31.1" x2="48.6" y2="31.9"/>
	<line class="st0" x1="46.8" y1="26.9" x2="46.8" y2="27.7"/>
	<line class="st0" x1="35.5" y1="36.3" x2="35.5" y2="35.4"/>
	<line class="st0" x1="37.4" y1="40.5" x2="37.4" y2="39.6"/>
	<line class="st0" x1="19.6" y1="34.5" x2="19.6" y2="35.4"/>
	<line class="st0" x1="22.4" y1="31.1" x2="22.4" y2="31.9"/>
	<line class="st0" x1="20.6" y1="26.9" x2="20.6" y2="27.7"/>
	<line class="st0" x1="9.3" y1="36.3" x2="9.3" y2="35.4"/>
	<line class="st0" x1="11.2" y1="40.5" x2="11.2" y2="39.6"/>
</g>
</svg>
