<?xml version="1.0" encoding="utf-8"?>
<!-- Generator: Adobe Illustrator 28.5.0, SVG Export Plug-In . SVG Version: 9.03 Build 54727)  -->
<svg version="1.0" id="Layer_1" xmlns="http://www.w3.org/2000/svg" xmlns:xlink="http://www.w3.org/1999/xlink" x="0px" y="0px"
	 viewBox="0 0 64 64" style="enable-background:new 0 0 64 64;" xml:space="preserve">
<style type="text/css">
	.st0{fill:none;stroke:#231F20;stroke-width:2;stroke-linecap:round;stroke-linejoin:round;stroke-miterlimit:10;}
</style>
<g>
	<path class="st0" d="M13.4,13.1v12.2c0,1.6,0.9,3,2.4,3.7l13.9,6.5c1.5,0.7,3.2,0.7,4.7,0L48.2,29c1.4-0.7,2.4-2.1,2.4-3.7V13.1
		c0-1.6-0.9-3-2.4-3.7L34.3,2.9c-1.5-0.7-3.2-0.7-4.7,0L15.8,9.4C14.3,10.1,13.4,11.5,13.4,13.1z"/>
	<polyline class="st0" points="18.2,14.2 32,20.6 45.8,14.2 	"/>
	<line class="st0" x1="32" y1="20.6" x2="32" y2="31.3"/>
	<path class="st0" d="M35.1,61.6l0.1-7.9c0-1.5,1-2.9,2.5-3.4c2.5-0.9,4.7-3.1,4.7-5.7V31.8"/>
	<path class="st0" d="M21.7,31.8v12.9c0,2.6,2.2,4.8,4.7,5.7c1.5,0.5,2.5,1.8,2.5,3.4l0.1,7.9"/>
	<path class="st0" d="M38.1,33.8v7.7c0,1.1-0.9,2-2,2c-0.5,0-1-0.2-1.4-0.6c-0.4-0.4-0.6-0.8-0.6-1.4v-5.8"/>
	<path class="st0" d="M29.9,35.6v5.8c0,1.1-0.9,2-2,2c-0.5,0-1-0.2-1.4-0.6s-0.6-0.8-0.6-1.4v-7.7"/>
</g>
</svg>
