<?xml version="1.0" encoding="utf-8"?>
<!-- Generator: Adobe Illustrator 28.5.0, SVG Export Plug-In . SVG Version: 9.03 Build 54727)  -->
<svg version="1.0" id="Layer_1" xmlns="http://www.w3.org/2000/svg" xmlns:xlink="http://www.w3.org/1999/xlink" x="0px" y="0px"
	 viewBox="0 0 64 64" style="enable-background:new 0 0 64 64;" xml:space="preserve">
<style type="text/css">
	.st0{fill:none;stroke:#231F20;stroke-width:2;stroke-linecap:round;stroke-linejoin:round;stroke-miterlimit:10;}
</style>
<g>
	<path class="st0" d="M55,48.3H9c-1.9,0-3.4-1.5-3.4-3.4v0c0-1.9,1.5-3.4,3.4-3.4H55c1.9,0,3.4,1.5,3.4,3.4v0
		C58.4,46.8,56.9,48.3,55,48.3z"/>
	<path class="st0" d="M47.8,60.3H16.2c-2.9,0-5.3-2.4-5.3-5.3v-6.7h42.2V55C53.1,57.9,50.7,60.3,47.8,60.3z"/>
	<path class="st0" d="M28.1,41.6H17c-2.2,0-3.9-1.8-3.9-3.9V26.6c0-2.2,1.8-3.9,3.9-3.9h11.1c2.2,0,3.9,1.8,3.9,3.9v11.1
		C32,39.9,30.2,41.6,28.1,41.6z"/>
	<circle class="st0" cx="19" cy="28.5" r="2.6"/>
	<circle class="st0" cx="19" cy="35.7" r="1.8"/>
	<path class="st0" d="M32,37.7V26.6c0-2.2,1.8-3.9,3.9-3.9H47c2.2,0,3.9,1.8,3.9,3.9v11.1c0,2.2-1.8,3.9-3.9,3.9H35.9
		C33.8,41.6,32,39.9,32,37.7z"/>
	<circle class="st0" cx="45.1" cy="28.6" r="2.6"/>
	<circle class="st0" cx="37.9" cy="28.6" r="1.8"/>
	<path class="st0" d="M26.4,3.7l11.1,0c2.2,0,3.9,1.8,3.9,3.9l0,11.1c0,2.2-1.8,3.9-3.9,3.9l-11.1,0c-2.2,0-3.9-1.8-3.9-3.9l0-11.1
		C22.5,5.4,24.3,3.7,26.4,3.7z"/>
	<circle class="st0" cx="35.5" cy="16.8" r="2.6"/>
	<circle class="st0" cx="35.5" cy="9.6" r="1.8"/>
</g>
</svg>
