<?xml version="1.0" encoding="utf-8"?>
<!-- Generator: Adobe Illustrator 28.5.0, SVG Export Plug-In . SVG Version: 9.03 Build 54727)  -->
<svg version="1.0" id="Layer_1" xmlns="http://www.w3.org/2000/svg" xmlns:xlink="http://www.w3.org/1999/xlink" x="0px" y="0px"
	 viewBox="0 0 64 64" style="enable-background:new 0 0 64 64;" xml:space="preserve">
<style type="text/css">
	.st0{fill:none;stroke:#231F20;stroke-width:2;stroke-linecap:round;stroke-linejoin:round;stroke-miterlimit:10;}
</style>
<g>
	<path class="st0" d="M31.7,37.7v-4.9v-0.1c0-1.6-1.3-2.9-2.9-2.9h0H14.1c-1.6,0-2.9,1.3-2.9,2.9v16.7c0,1.6,1.3,2.9,2.9,2.9h14.7
		c1.6,0,2.9-1.3,2.9-2.9v-7.6"/>
	<line class="st0" x1="11.2" y1="49.4" x2="11.2" y2="32.7"/>
	<path class="st0" d="M14.1,52.3l-8.3,0c-1.6,0-2.9-1.3-2.9-2.9V32.7c0-1.6,1.3-2.9,2.9-2.9l8.3,0"/>
	<path class="st0" d="M31.7,32.8l24.5-11.5c0.7-0.3,1.1-1.1,1.1-1.8c0-0.3-0.1-0.6-0.2-0.8c-0.5-1-1.6-1.4-2.6-0.9L28.7,29.8"/>
	<path class="st0" d="M59.7,33.7L19.3,45.4c-1,0.3-2.1-0.3-2.4-1.3v0c-0.3-1,0.3-2.1,1.3-2.4l40.4-11.7c1-0.3,2.1,0.3,2.4,1.3l0,0
		C61.4,32.3,60.8,33.4,59.7,33.7z"/>
	<path class="st0" d="M18.2,11.7c0,0-1.8,3,0,5.8c2,3.2,0,5.8,0,5.8"/>
	<path class="st0" d="M10.3,11.8c0,0-1.8,3,0,5.8c2,3.2,0,5.8,0,5.8"/>
	<path class="st0" d="M26,11.8c0,0-1.8,3,0,5.8c2,3.2,0,5.8,0,5.8"/>
</g>
</svg>
