<?xml version="1.0" encoding="utf-8"?>
<!-- Generator: Adobe Illustrator 28.5.0, SVG Export Plug-In . SVG Version: 9.03 Build 54727)  -->
<svg version="1.0" id="Layer_1" xmlns="http://www.w3.org/2000/svg" xmlns:xlink="http://www.w3.org/1999/xlink" x="0px" y="0px"
	 viewBox="0 0 64 64" style="enable-background:new 0 0 64 64;" xml:space="preserve">
<style type="text/css">
	.st0{fill:none;stroke:#231F20;stroke-width:2;stroke-linecap:round;stroke-linejoin:round;stroke-miterlimit:10;}
</style>
<g>
	<path class="st0" d="M42.7,54.5H21.3c-7.9,0-14.4-6.4-14.4-14.4v-7.6h50.1v7.6C57.1,48.1,50.6,54.5,42.7,54.5z"/>
	<path class="st0" d="M38.7,61H25.3c-2.1,0-3.7-1.7-3.7-3.7v-2.7h21v2.7C42.5,59.3,40.8,61,38.7,61z"/>
	<path class="st0" d="M25.9,28.3v-2.6c0-1-0.8-1.7-1.7-1.7h-5.1h-4c-1,0-1.7,0.8-1.7,1.7v6.9"/>
	<path class="st0" d="M30.7,18.7l0-0.3c-0.1-1,0.5-1.8,1.5-2l9-1.3c1-0.1,1.8,0.5,2,1.5l1.3,9.2"/>
	<path class="st0" d="M31.6,26.2L31.6,26.2l1.7-4.8c0.3-0.9-0.1-1.9-1.1-2.2l-1.6-0.6l-7-2.5c-0.9-0.3-1.9,0.1-2.2,1.1l-2.4,6.7"/>
	<path class="st0" d="M39.1,32.7L39.1,32.7L39.1,32.7l-2.4-6.5c-0.3-0.9-1.3-1.4-2.2-1L26,28.3c-0.9,0.3-1.4,1.3-1,2.2l0.8,2.1"/>
	<path class="st0" d="M39.1,32.7L39.1,32.7L39.1,32.7l1.3-4.9l0.3-1.3c0.3-0.9,1.2-1.5,2.1-1.2l1.5,0.4l7.3,2
		c0.9,0.3,1.5,1.2,1.2,2.1l-0.7,2.7"/>
	<line class="st0" x1="6.9" y1="40.2" x2="57.1" y2="40.2"/>
	<path class="st0" d="M31.9,3c0,0-1.4,2.1,0,4.1c1.6,2.2,0,4.1,0,4.1"/>
	<path class="st0" d="M22.3,3c0,0-1.4,2.1,0,4.1c1.6,2.2,0,4.1,0,4.1"/>
	<path class="st0" d="M41.6,3c0,0-1.4,2.1,0,4.1c1.6,2.2,0,4.1,0,4.1"/>
</g>
</svg>
