<?xml version="1.0" encoding="utf-8"?>
<!-- Generator: Adobe Illustrator 28.5.0, SVG Export Plug-In . SVG Version: 9.03 Build 54727)  -->
<svg version="1.0" id="Layer_1" xmlns="http://www.w3.org/2000/svg" xmlns:xlink="http://www.w3.org/1999/xlink" x="0px" y="0px"
	 viewBox="0 0 64 64" style="enable-background:new 0 0 64 64;" xml:space="preserve">
<style type="text/css">
	.st0{fill:none;stroke:#231F20;stroke-width:2;stroke-linecap:round;stroke-linejoin:round;stroke-miterlimit:10;}
</style>
<g>
	<path class="st0" d="M54.8,58.4H9.2c-3.7,0-6.7-3-6.7-6.7v-4.3h59.1v4.3C61.5,55.4,58.5,58.4,54.8,58.4z"/>
	<path class="st0" d="M50.8,47.4H13.2c-2.5,0-4.5-2-4.5-4.5v-21c0-2.5,2-4.5,4.5-4.5h37.5c2.5,0,4.5,2,4.5,4.5v21
		C55.3,45.4,53.3,47.4,50.8,47.4z"/>
	<circle class="st0" cx="16.9" cy="24.5" r="2.7"/>
	<circle class="st0" cx="47.1" cy="40.4" r="2.7"/>
	<circle class="st0" cx="48.3" cy="27.3" r="2.7"/>
	<circle class="st0" cx="32.6" cy="28.4" r="2.7"/>
	<circle class="st0" cx="31.4" cy="40.4" r="2.7"/>
	<circle class="st0" cx="15.7" cy="37.5" r="2.7"/>
	<line class="st0" x1="22.7" y1="31.5" x2="24" y2="32.4"/>
	<line class="st0" x1="25.4" y1="22.5" x2="27.3" y2="21.8"/>
	<line class="st0" x1="38.2" y1="22.5" x2="39.9" y2="24"/>
	<line class="st0" x1="39.9" y1="32.9" x2="38.6" y2="34.8"/>
	<line class="st0" x1="21.5" y1="40.4" x2="22.7" y2="42.3"/>
	<line class="st0" x1="38.4" y1="43.7" x2="40.1" y2="43.7"/>
	<line class="st0" x1="49.5" y1="33.3" x2="50" y2="34.4"/>
	<line class="st0" x1="14.7" y1="30.3" x2="14" y2="31.2"/>
	<path class="st0" d="M28.6,8.2c3.2,3.2,2.5,9.1,2.5,9.1s-5.9,0.7-9.1-2.5s-2.5-9.1-2.5-9.1S25.4,5,28.6,8.2z"/>
	<line class="st0" x1="24.1" y1="10.4" x2="31.2" y2="17.3"/>
	<path class="st0" d="M36.5,8.2c-3.2,3.2-2.5,9.1-2.5,9.1s5.9,0.7,9.1-2.5s2.5-9.1,2.5-9.1S39.8,5,36.5,8.2z"/>
	<line class="st0" x1="41.1" y1="10.4" x2="34" y2="17.3"/>
</g>
</svg>
