<?xml version="1.0" encoding="utf-8"?>
<!-- Generator: Adobe Illustrator 28.5.0, SVG Export Plug-In . SVG Version: 9.03 Build 54727)  -->
<svg version="1.0" id="Layer_1" xmlns="http://www.w3.org/2000/svg" xmlns:xlink="http://www.w3.org/1999/xlink" x="0px" y="0px"
	 viewBox="0 0 64 64" style="enable-background:new 0 0 64 64;" xml:space="preserve">
<style type="text/css">
	.st0{fill:none;stroke:#231F20;stroke-width:2;stroke-linecap:round;stroke-linejoin:round;stroke-miterlimit:10;}
</style>
<g>
	<g>
		<path class="st0" d="M56.4,52.4H6.6c-2.5,0-4.5-2-4.5-4.5v-4.6h58.8v4.6C60.9,50.4,58.9,52.4,56.4,52.4z"/>
		<path class="st0" d="M49.7,58.5H13.3c-3.3,0-6-2.7-6-6v0h48.4v0C55.8,55.8,53.1,58.5,49.7,58.5z"/>
	</g>
	<path class="st0" d="M28.9,43.4H8.8c-1.4,0-2.6-1.2-2.6-2.6v-8c0-1.4,1.2-2.6,2.6-2.6h20.1c1.4,0,2.6,1.2,2.6,2.6v8
		C31.5,42.2,30.4,43.4,28.9,43.4z"/>
	<circle class="st0" cx="11.3" cy="35.5" r="2.1"/>
	<circle class="st0" cx="26.4" cy="35.5" r="2.1"/>
	<circle class="st0" cx="18.9" cy="38.9" r="2.1"/>
	<path class="st0" d="M54.3,43.4H34.2c-1.4,0-2.6-1.2-2.6-2.6v-8c0-1.4,1.2-2.6,2.6-2.6h20.1c1.4,0,2.6,1.2,2.6,2.6v8
		C56.9,42.2,55.7,43.4,54.3,43.4z"/>
	<circle class="st0" cx="36.7" cy="35.5" r="2.1"/>
	<circle class="st0" cx="51.7" cy="35.5" r="2.1"/>
	<circle class="st0" cx="44.2" cy="38.9" r="2.1"/>
	<path class="st0" d="M41.6,30.2H21.5c-1.4,0-2.6-1.2-2.6-2.6v-8c0-1.4,1.2-2.6,2.6-2.6h20.1c1.4,0,2.6,1.2,2.6,2.6v8
		C44.2,29,43,30.2,41.6,30.2z"/>
	<circle class="st0" cx="24" cy="22.3" r="2.1"/>
	<circle class="st0" cx="39.1" cy="22.3" r="2.1"/>
	<circle class="st0" cx="31.5" cy="25.7" r="2.1"/>
	<path class="st0" d="M45.8,30.2l4.4-22.9c0.2-1.1,1.3-1.8,2.4-1.6c1,0.2,1.6,1,1.6,2c0,0.1,0,0.2,0,0.4l-4.2,22.1"/>
	<path class="st0" d="M52.1,30.2l5.8-23.1c0.3-1.1,1.4-1.7,2.4-1.5c0.9,0.2,1.5,1,1.5,1.9c0,0.2,0,0.3-0.1,0.5l-5.7,22.9"/>
</g>
</svg>
