<?xml version="1.0" encoding="utf-8"?>
<!-- Generator: Adobe Illustrator 28.5.0, SVG Export Plug-In . SVG Version: 9.03 Build 54727)  -->
<svg version="1.0" id="Layer_1" xmlns="http://www.w3.org/2000/svg" xmlns:xlink="http://www.w3.org/1999/xlink" x="0px" y="0px"
	 viewBox="0 0 64 64" style="enable-background:new 0 0 64 64;" xml:space="preserve">
<style type="text/css">
	.st0{fill:none;stroke:#231F20;stroke-width:2;stroke-linecap:round;stroke-linejoin:round;stroke-miterlimit:10;}
</style>
<g>
	<path class="st0" d="M56.7,59.2H7.3c-2.6,0-4.7-2.1-4.7-4.7v-14c0-2.6,2.1-4.7,4.7-4.7h49.4c2.6,0,4.7,2.1,4.7,4.7v14
		C61.4,57.1,59.3,59.2,56.7,59.2z"/>
	<path class="st0" d="M2.6,40.6V9.4c0-2.6,2.1-4.7,4.7-4.7h49.4c2.6,0,4.7,2.1,4.7,4.7v31.2"/>
	<line class="st0" x1="30.7" y1="15" x2="54.4" y2="15"/>
	<line class="st0" x1="12.3" y1="25.5" x2="36" y2="25.5"/>
	<circle class="st0" cx="45.8" cy="43.2" r="2.6"/>
	<circle class="st0" cx="38.9" cy="50.9" r="2.9"/>
	<circle class="st0" cx="53.2" cy="51" r="3.4"/>
	<line class="st0" x1="10.4" y1="49.8" x2="10.4" y2="51"/>
	<line class="st0" x1="13.8" y1="44.6" x2="13.8" y2="45.8"/>
	<line class="st0" x1="7.7" y1="42.6" x2="7.7" y2="43.8"/>
</g>
</svg>
