<?xml version="1.0" encoding="utf-8"?>
<!-- Generator: Adobe Illustrator 28.5.0, SVG Export Plug-In . SVG Version: 9.03 Build 54727)  -->
<svg version="1.0" id="Layer_1" xmlns="http://www.w3.org/2000/svg" xmlns:xlink="http://www.w3.org/1999/xlink" x="0px" y="0px"
	 viewBox="0 0 64 64" style="enable-background:new 0 0 64 64;" xml:space="preserve">
<style type="text/css">
	.st0{fill:none;stroke:#231F20;stroke-width:2;stroke-linecap:round;stroke-linejoin:round;stroke-miterlimit:10;}
</style>
<g>
	<path class="st0" d="M11.4,7.6l9.8-4c1.2-0.5,2.6-0.2,3.6,0.7l5.6,5.6c0.9,0.9,1.2,2.3,0.7,3.6l-0.6,1.4l0,0l-3.4,8.3l-0.1,0.2
		c-0.7,1.7-2,3-3.6,3.6l-0.2,0.1l-8.3,3.4l-1.4,0.6c-1.2,0.5-2.6,0.2-3.6-0.7l-5.6-5.6c-0.9-0.9-1.2-2.3-0.7-3.6l4-9.8"/>
	<polyline class="st0" points="7.5,22.2 18,18 22.2,7.5 	"/>
	<line class="st0" x1="18" y1="18" x2="23.3" y2="23.3"/>
	<path class="st0" d="M14.9,30.5l-0.6,1.4c-0.5,1.2-0.2,2.6,0.7,3.6l5.6,5.6c0.9,0.9,2.3,1.2,3.6,0.7l2.2-0.9l7.7-3.1
		c1.7-0.7,3-2,3.6-3.6l3.1-7.7l0,0l0.9-2.2c0.5-1.2,0.2-2.6-0.7-3.6l-5.6-5.6c-0.9-0.9-2.3-1.2-3.6-0.7l-1.4,0.6l0,0"/>
	<polyline class="st0" points="18.2,32.9 28.7,28.7 32.9,18.2 	"/>
	<line class="st0" x1="28.7" y1="28.7" x2="34" y2="34"/>
	<path class="st0" d="M26.4,40.9l-0.9,2.2c-0.5,1.2-0.2,2.6,0.7,3.6l5.6,5.6c0.9,0.9,2.3,1.2,3.6,0.7l9.9-4c1.7-0.7,3-2,3.6-3.6
		l4-9.9c0.5-1.2,0.2-2.6-0.7-3.6l-5.6-5.6c-0.9-0.9-2.3-1.2-3.6-0.7l-2.2,0.9l0,0"/>
	<polyline class="st0" points="29.4,44.1 39.8,39.8 44.1,29.4 	"/>
	<line class="st0" x1="39.8" y1="39.8" x2="45.1" y2="45.1"/>
	<path class="st0" d="M11.1,15l-3-3c-0.2-0.2-0.3-0.4-0.5-0.6C6.1,9.7,5.3,7.6,5.3,5.3l0,0c2.3,0,4.4,0.8,6.1,2.3
		c0.2,0.2,0.4,0.3,0.6,0.5l3,3"/>
	<path class="st0" d="M49,45.1l10.8,10.8c1.1,1.1,1.1,2.8,0,3.9l0,0c-1.1,1.1-2.8,1.1-3.9,0L45.1,49"/>
</g>
</svg>
