<?xml version="1.0" encoding="utf-8"?>
<!-- Generator: Adobe Illustrator 28.5.0, SVG Export Plug-In . SVG Version: 9.03 Build 54727)  -->
<svg version="1.0" id="Layer_1" xmlns="http://www.w3.org/2000/svg" xmlns:xlink="http://www.w3.org/1999/xlink" x="0px" y="0px"
	 viewBox="0 0 64 64" style="enable-background:new 0 0 64 64;" xml:space="preserve">
<style type="text/css">
	.st0{fill:none;stroke:#231F20;stroke-width:2;stroke-linecap:round;stroke-linejoin:round;stroke-miterlimit:10;}
</style>
<g>
	<path class="st0" d="M20.2,32.7l-3.9-1.8c-1-0.5-1.7-1.5-1.7-2.7v-2.8V24c0-0.6,0.2-1.2,0.5-1.6c0.3-0.4,0.7-0.8,1.2-1l2.4-1.1
		l3-1.4c0.8-0.4,1.7-0.4,2.5,0l0.4,0.2l5,2.4c0.3,0.1,0.5,0.3,0.7,0.5c0.2,0.2,0.3,0.3,0.5,0.5c0.3,0.5,0.5,1,0.5,1.6v4.2
		c0,1.1-0.6,2.2-1.7,2.7L27,32.2"/>
	<polyline class="st0" points="15.1,22.3 23.1,26.1 31.1,22.3 	"/>
	<line class="st0" x1="23.1" y1="31.8" x2="23.1" y2="26.1"/>
	<path class="st0" d="M43.1,34.1l-4-1.9c-1-0.5-1.7-1.5-1.7-2.7v-4.2c0-0.6,0.2-1.2,0.5-1.6c0.3-0.4,0.7-0.8,1.2-1l0.7-0.3h0
		l4.8-2.3c0.1,0,0.1-0.1,0.2-0.1c0.7-0.3,1.6-0.3,2.3,0.1l5.5,2.6c0.5,0.2,0.9,0.6,1.2,1c0,0,0.1,0.1,0.1,0.2h0
		c0.3,0.4,0.4,0.9,0.4,1.5v3.9v0.3c0,1.1-0.7,2.2-1.7,2.7l-5.5,2.6c-0.1,0-0.2,0.1-0.3,0.1"/>
	<polyline class="st0" points="37.9,23.7 45.9,27.5 53.9,23.7 	"/>
	<line class="st0" x1="45.9" y1="34.5" x2="45.9" y2="27.5"/>
	<path class="st0" d="M24.8,19L24.8,19c2.3-0.3,4.7-0.5,7.2-0.5c4.6,0,9,0.6,12.8,1.6"/>
	<path class="st0" d="M53.7,23.8c0.1,0,0.1,0.1,0.2,0.1h0c3.8,2.4,6,5.5,6,8.9c0,7.9-12.5,14.3-27.9,14.3S4.1,40.7,4.1,32.8
		c0-5.5,5.9-10.2,14.7-12.6c0,0,0,0,0,0"/>
	<line class="st0" x1="49.8" y1="25.6" x2="49.8" y2="25.6"/>
	<path class="st0" d="M54.3,29.3c0.8,1.1,1.2,2.3,1.2,3.5c0,6.1-10.5,11-23.5,11s-23.5-4.9-23.5-11c0-2.9,2.3-5.5,6.2-7.5"/>
	<path class="st0" d="M39.8,22.4L39.8,22.4c-2.5-0.4-5.1-0.6-7.8-0.6c-0.5,0-1,0-1.5,0"/>
	<path class="st0" d="M59.9,32.8v0.3c0,12.6-8.5,23.7-20.7,26.9l0,0c-4.7,1.2-9.6,1.2-14.3,0l0,0C12.6,56.8,4.1,45.8,4.1,33.1v-0.3"
		/>
	<path class="st0" d="M15.7,33.9c4.3,0,4.3-2.1,8.5-2.1s4.3,2.1,8.5,2.1"/>
	<path class="st0" d="M35.9,35.9c3.7,0,3.7-1.8,7.4-1.8s3.7,1.8,7.4,1.8"/>
	<path class="st0" d="M32.2,3c0,0-1.8,2.7,0,5.3c2,2.9,0,5.3,0,5.3"/>
	<path class="st0" d="M19.9,3c0,0-1.8,2.7,0,5.3c2,2.9,0,5.3,0,5.3"/>
	<path class="st0" d="M44.5,3c0,0-1.8,2.7,0,5.3c2,2.9,0,5.3,0,5.3"/>
</g>
</svg>
