<?xml version="1.0" encoding="utf-8"?>
<!-- Generator: Adobe Illustrator 28.5.0, SVG Export Plug-In . SVG Version: 9.03 Build 54727)  -->
<svg version="1.0" id="Layer_1" xmlns="http://www.w3.org/2000/svg" xmlns:xlink="http://www.w3.org/1999/xlink" x="0px" y="0px"
	 viewBox="0 0 64 64" style="enable-background:new 0 0 64 64;" xml:space="preserve">
<style type="text/css">
	.st0{fill:none;stroke:#231F20;stroke-width:2;stroke-linecap:round;stroke-linejoin:round;stroke-miterlimit:10;}
</style>
<g>
	<path class="st0" d="M53.2,47.6H10.8c-4.9,0-8.9-4-8.9-8.9v0H62v0C62,43.6,58.1,47.6,53.2,47.6z"/>
	<path class="st0" d="M48.8,56.5H15.2c-2,0-3.5-1.6-3.5-3.5v-5.3h40.6v5.3C52.3,54.9,50.7,56.5,48.8,56.5z"/>
	<path class="st0" d="M23.1,38.7H5.2V26.6c0-1.9,1.5-3.4,3.4-3.4h11c1.9,0,3.4,1.5,3.4,3.4V38.7z"/>
	<line class="st0" x1="9.6" y1="27.4" x2="10.9" y2="29"/>
	<line class="st0" x1="17.5" y1="28.3" x2="16" y2="29.9"/>
	<line class="st0" x1="9.6" y1="35.1" x2="11" y2="34.3"/>
	<line class="st0" x1="19.1" y1="34.4" x2="17.7" y2="35.1"/>
	<path class="st0" d="M26.5,23.1H32V11c0-1.9-1.5-3.4-3.4-3.4h-11c-1.9,0-3.4,1.5-3.4,3.4v12.2h5.5"/>
	<line class="st0" x1="18.5" y1="11.9" x2="19.8" y2="13.5"/>
	<line class="st0" x1="26.5" y1="12.7" x2="25" y2="14.4"/>
	<line class="st0" x1="18.5" y1="19.5" x2="20" y2="18.7"/>
	<line class="st0" x1="28.1" y1="18.8" x2="26.7" y2="19.5"/>
	<path class="st0" d="M44.4,23.1h5.5V11c0-1.9-1.5-3.4-3.4-3.4h-11C33.5,7.5,32,9.1,32,11v12.2h5.5"/>
	<line class="st0" x1="36.4" y1="11.9" x2="37.7" y2="13.5"/>
	<line class="st0" x1="44.3" y1="12.7" x2="42.9" y2="14.4"/>
	<line class="st0" x1="36.4" y1="19.5" x2="37.9" y2="18.7"/>
	<line class="st0" x1="46" y1="18.8" x2="44.5" y2="19.5"/>
	<path class="st0" d="M40.9,38.7H23.1V26.6c0-1.9,1.5-3.4,3.4-3.4h11c1.9,0,3.4,1.5,3.4,3.4V38.7z"/>
	<line class="st0" x1="27.5" y1="27.4" x2="28.8" y2="29"/>
	<line class="st0" x1="35.4" y1="28.3" x2="33.9" y2="29.9"/>
	<line class="st0" x1="27.5" y1="35.1" x2="28.9" y2="34.3"/>
	<line class="st0" x1="37" y1="34.4" x2="35.6" y2="35.1"/>
	<path class="st0" d="M58.8,38.7H40.9V26.6c0-1.9,1.5-3.4,3.4-3.4h11c1.9,0,3.4,1.5,3.4,3.4V38.7z"/>
	<line class="st0" x1="45.4" y1="27.4" x2="46.7" y2="29"/>
	<line class="st0" x1="53.3" y1="28.3" x2="51.8" y2="29.9"/>
	<line class="st0" x1="45.4" y1="35.1" x2="46.8" y2="34.3"/>
	<line class="st0" x1="54.9" y1="34.4" x2="53.5" y2="35.1"/>
</g>
</svg>
