<?xml version="1.0" encoding="utf-8"?>
<!-- Generator: Adobe Illustrator 28.5.0, SVG Export Plug-In . SVG Version: 9.03 Build 54727)  -->
<svg version="1.0" id="Layer_1" xmlns="http://www.w3.org/2000/svg" xmlns:xlink="http://www.w3.org/1999/xlink" x="0px" y="0px"
	 viewBox="0 0 64 64" style="enable-background:new 0 0 64 64;" xml:space="preserve">
<style type="text/css">
	.st0{fill:none;stroke:#231F20;stroke-width:2;stroke-linecap:round;stroke-linejoin:round;stroke-miterlimit:10;}
</style>
<g>
	<ellipse class="st0" cx="21.5" cy="40.3" rx="18.1" ry="6.8"/>
	<path class="st0" d="M39.6,40.4v13.3v-0.1c0,3.7-8.1,6.8-18.1,6.8s-18.1-3-18.1-6.8v0.1V40.4"/>
	<ellipse class="st0" cx="42.5" cy="24.9" rx="18.1" ry="6.8"/>
	<line class="st0" x1="24.4" y1="33.6" x2="24.4" y2="25"/>
	<path class="st0" d="M39.6,45c0.9,0.1,1.9,0.1,2.9,0.1c10,0,18.1-3,18.1-6.8"/>
	<line class="st0" x1="35.6" y1="44.5" x2="35.6" y2="44.5"/>
	<polyline class="st0" points="60.6,38.4 60.6,38.3 60.6,25 	"/>
	<line class="st0" x1="12.7" y1="37.9" x2="13.5" y2="39.9"/>
	<line class="st0" x1="25.4" y1="36.9" x2="23.4" y2="37.9"/>
	<line class="st0" x1="21.5" y1="43.9" x2="19.4" y2="43.1"/>
	<line class="st0" x1="34.2" y1="40" x2="32.1" y2="40.8"/>
	<line class="st0" x1="32.6" y1="22.5" x2="33.4" y2="24.6"/>
	<line class="st0" x1="45.3" y1="21.5" x2="43.3" y2="22.6"/>
	<line class="st0" x1="41.5" y1="28.5" x2="39.4" y2="27.8"/>
	<line class="st0" x1="54.1" y1="24.7" x2="52" y2="25.4"/>
	<line class="st0" x1="8" y1="51" x2="9.8" y2="52.8"/>
	<line class="st0" x1="31" y1="53.3" x2="34.2" y2="51.9"/>
	<line class="st0" x1="50.1" y1="38.1" x2="53.2" y2="36.7"/>
	<path class="st0" d="M11.8,18.9c0,0-1.5,2.5,0,4.8c1.7,2.6,0,4.8,0,4.8"/>
	<path class="st0" d="M5.2,19c0,0-1.5,2.5,0,4.8c1.7,2.6,0,4.8,0,4.8"/>
	<path class="st0" d="M18.3,19c0,0-1.5,2.5,0,4.8c1.7,2.6,0,4.8,0,4.8"/>
	<path class="st0" d="M41.4,3.6c0,0-1.5,2.5,0,4.8c1.7,2.6,0,4.8,0,4.8"/>
	<path class="st0" d="M34.9,3.7c0,0-1.5,2.5,0,4.8c1.7,2.6,0,4.8,0,4.8"/>
	<path class="st0" d="M47.9,3.7c0,0-1.5,2.5,0,4.8c1.7,2.6,0,4.8,0,4.8"/>
</g>
</svg>
