<?xml version="1.0" encoding="utf-8"?>
<!-- Generator: Adobe Illustrator 28.5.0, SVG Export Plug-In . SVG Version: 9.03 Build 54727)  -->
<svg version="1.0" id="Layer_1" xmlns="http://www.w3.org/2000/svg" xmlns:xlink="http://www.w3.org/1999/xlink" x="0px" y="0px"
	 viewBox="0 0 64 64" style="enable-background:new 0 0 64 64;" xml:space="preserve">
<style type="text/css">
	.st0{fill:none;stroke:#231F20;stroke-width:2;stroke-linecap:round;stroke-linejoin:round;stroke-miterlimit:10;}
</style>
<g>
	<path class="st0" d="M36.2,17.4l10.4,6c0.6,0.3,1.1,0.8,1.5,1.4c0.4,0.6,0.8,1.3,0.9,2l2.5,13.1c0.4,2.2-0.7,4.5-2.7,5.4l-14.6,6.9
		c-0.7,0.3-1.4,0.5-2.1,0.5c-0.7,0-1.4-0.2-2.1-0.5l-14.6-6.9c-2.1-1-3.2-3.2-2.8-5.4l2.5-13.1c0.1-0.7,0.4-1.4,0.9-2
		c0.4-0.6,0.9-1,1.5-1.4l10.4-6"/>
	<polyline class="st0" points="15.9,24.7 32,32.1 48.1,24.7 	"/>
	<line class="st0" x1="32" y1="52.6" x2="32" y2="32.1"/>
	<path class="st0" d="M50.9,36.7c6.7,2.2,11.1,5.5,11.1,9.2c0,6.5-13.4,11.8-29.9,11.8S2.1,52.4,2.1,45.9c0-3.7,4.3-7,11.1-9.2"/>
	<line class="st0" x1="41.6" y1="33.1" x2="43.7" y2="32.1"/>
	<line class="st0" x1="36.8" y1="38" x2="36.8" y2="39.2"/>
	<line class="st0" x1="43.7" y1="37.5" x2="45" y2="38.5"/>
	<line class="st0" x1="40.7" y1="42.8" x2="39.3" y2="44.2"/>
	<line class="st0" x1="17.9" y1="30.9" x2="17.9" y2="31.8"/>
	<line class="st0" x1="22.9" y1="33.6" x2="23.4" y2="35.2"/>
	<line class="st0" x1="28.7" y1="37.5" x2="27.4" y2="39.4"/>
	<line class="st0" x1="17.1" y1="37.7" x2="18.6" y2="39.2"/>
	<line class="st0" x1="22.6" y1="43.5" x2="24.2" y2="44.2"/>
	<path class="st0" d="M36.8,14.4c0,4.5-4.8,8.2-4.8,8.2s-4.8-3.7-4.8-8.2S32,6.3,32,6.3S36.8,9.9,36.8,14.4z"/>
	<line class="st0" x1="32" y1="14.2" x2="32" y2="26.1"/>
	<line class="st0" x1="25.5" y1="22.6" x2="24.8" y2="24.7"/>
	<line class="st0" x1="40" y1="24" x2="37.9" y2="24.8"/>
</g>
</svg>
