<?xml version="1.0" encoding="utf-8"?>
<!-- Generator: Adobe Illustrator 28.5.0, SVG Export Plug-In . SVG Version: 9.03 Build 54727)  -->
<svg version="1.0" id="Layer_1" xmlns="http://www.w3.org/2000/svg" xmlns:xlink="http://www.w3.org/1999/xlink" x="0px" y="0px"
	 viewBox="0 0 64 64" style="enable-background:new 0 0 64 64;" xml:space="preserve">
<style type="text/css">
	.st0{fill:none;stroke:#231F20;stroke-width:2;stroke-linecap:round;stroke-linejoin:round;stroke-miterlimit:10;}
</style>
<g>
	<path class="st0" d="M43.2,22.6c-0.8-0.7-1.6-1.3-2.5-1.9"/>
	<path class="st0" d="M46,25.4c3.2,3.9,5.1,8.8,5.1,14.2c0,12.4-10.1,22.5-22.5,22.5S6,52.1,6,39.7s10.1-22.5,22.5-22.5
		c3.1,0,6.1,0.6,8.8,1.8"/>
	<path class="st0" d="M40.9,25.7c-0.7-0.6-1.4-1.2-2.2-1.7"/>
	<path class="st0" d="M43.4,28.4c2.4,3.1,3.8,7,3.8,11.2c0,10.3-8.3,18.6-18.6,18.6S9.9,49.9,9.9,39.7s8.3-18.6,18.6-18.6
		c2.5,0,4.8,0.5,7,1.4"/>
	<path class="st0" d="M24.5,33.1l-2.4,1.2c-0.7,0.3-1.5,0.1-1.8-0.6l-1.2-2.4c-0.3-0.7-0.1-1.5,0.6-1.8l2.4-1.2
		c0.7-0.3,1.5-0.1,1.8,0.6l1.2,2.4C25.4,32,25.2,32.8,24.5,33.1z"/>
	<path class="st0" d="M41.1,46h-2.6c-0.8,0-1.4-0.6-1.4-1.4V42c0-0.8,0.6-1.4,1.4-1.4h2.6c0.8,0,1.4,0.6,1.4,1.4v2.6
		C42.5,45.4,41.9,46,41.1,46z"/>
	<path class="st0" d="M31.7,39.7L31,42.3c-0.2,0.7-0.9,1.2-1.7,1l-2.5-0.7c-0.7-0.2-1.2-0.9-1-1.7l0.7-2.5c0.2-0.7,0.9-1.2,1.7-1
		l2.5,0.7C31.5,38.3,31.9,39,31.7,39.7z"/>
	<path class="st0" d="M31.1,49.5v2.6c0,0.8-0.6,1.4-1.4,1.4h-2.6c-0.8,0-1.4-0.6-1.4-1.4v-2.6c0-0.8,0.6-1.4,1.4-1.4h2.6
		C30.4,48.2,31.1,48.8,31.1,49.5z"/>
	<path class="st0" d="M18.9,44.4l-2.4,1.2C15.8,46,15,45.7,14.7,45l-1.2-2.4c-0.3-0.7-0.1-1.5,0.6-1.8l2.4-1.2
		c0.7-0.3,1.5-0.1,1.8,0.6l1.2,2.4C19.8,43.3,19.5,44.1,18.9,44.4z"/>
	<path class="st0" d="M35.8,34h-2.6c-0.8,0-1.4-0.6-1.4-1.4V30c0-0.8,0.6-1.4,1.4-1.4h2.6c0.8,0,1.4,0.6,1.4,1.4v2.6
		C37.1,33.4,36.5,34,35.8,34z"/>
	<line class="st0" x1="19.4" y1="48.8" x2="20.8" y2="50"/>
	<line class="st0" x1="36" y1="49.6" x2="34.9" y2="51"/>
	<line class="st0" x1="41.2" y1="36.9" x2="39.8" y2="35.8"/>
	<line class="st0" x1="29" y1="26.9" x2="27.2" y2="26.8"/>
	<line class="st0" x1="15.9" y1="34.1" x2="16.1" y2="35.9"/>
	<path class="st0" d="M36,25.1L36,25.1c-0.8-0.5-1.1-1.5-0.7-2.4L45.4,3.2c0.7-1.3,2.3-1.8,3.5-1.1l0,0c1.3,0.7,1.7,2.3,0.9,3.6
		L38.4,24.5C37.9,25.3,36.8,25.6,36,25.1z"/>
	<path class="st0" d="M40.3,29.3L40.3,29.3c-0.7-0.6-0.9-1.7-0.3-2.5L53.4,9.3c0.9-1.2,2.5-1.3,3.7-0.4l0,0c1.1,0.9,1.3,2.6,0.3,3.7
		L42.8,29.1C42.1,29.8,41.1,29.9,40.3,29.3z"/>
</g>
</svg>
